# xmcd
#
# Track frame offsets: 
#        150
#        18216
#        41666
#        62031
#        84689
#        103749
#        120628
#        136392
#        158437
#        174146
#        188328
#        210777
#
# Disc length: 3033 seconds
#
# Revision: 0
# Processed by: cddbd v1.5.2PL0 Copyright (c) Steve Scherf et al.
# Submitted via: ExactAudioCopy v1.2
#
DISCID=890bd70c
DTITLE=Chris Beard - Who I Am and What I Do
DYEAR=2010
DGENRE=Blues
TTITLE0=Blues Is My Living
TTITLE1=Insecurities
TTITLE2=Brand New Heart
TTITLE3=Hard Out Here
TTITLE4=Who I Am and What I Do
TTITLE5=Hell of A Lovin' Man
TTITLE6=After I Said I Do
TTITLE7=That's The Way Love Was Mean To Be
TTITLE8=Gotta Find My Baby
TTITLE9=Changeling
TTITLE10=Ties Up, Tied Down and Twisted
TTITLE11=Hey Baby
EXTD=
EXTT0=
EXTT1=
EXTT2=
EXTT3=
EXTT4=
EXTT5=
EXTT6=
EXTT7=
EXTT8=
EXTT9=
EXTT10=
EXTT11=
PLAYORDER=
